<?xml version="1.0" standalone="no"?>
<!DOCTYPE svg PUBLIC "-//W3C//DTD SVG 20010904//EN"
 "http://www.w3.org/TR/2001/REC-SVG-20010904/DTD/svg10.dtd">
<svg version="1.0" xmlns="http://www.w3.org/2000/svg"
 width="1258.000000pt" height="1070.000000pt" viewBox="0 0 1258.000000 1070.000000"
 preserveAspectRatio="xMidYMid meet">

<g transform="translate(0.000000,1070.000000) scale(0.100000,-0.100000)"
fill="#000000" stroke="none">
<path d="M1915 9608 c-33 -3 -73 -9 -90 -13 -118 -25 -166 -38 -171 -46 -3 -5
-13 -9 -23 -9 -37 0 -278 -135 -289 -162 -2 -4 -8 -8 -14 -8 -23 0 -193 -180
-246 -260 -31 -47 -60 -86 -64 -88 -5 -2 -8 -8 -8 -13 0 -4 -12 -34 -26 -66
-49 -107 -53 -120 -70 -184 -49 -197 -51 -374 -5 -589 13 -60 23 -88 58 -170
41 -94 46 -102 110 -200 66 -101 127 -169 208 -235 28 -22 52 -43 55 -46 10
-13 146 -96 183 -112 20 -10 52 -24 71 -32 33 -14 132 -45 206 -64 82 -21 221
-31 443 -31 199 0 237 -2 237 -14 0 -8 -15 -47 -34 -88 -18 -40 -53 -120 -76
-178 -23 -58 -50 -123 -60 -146 -10 -22 -22 -57 -25 -77 -4 -21 -11 -40 -16
-43 -5 -3 -9 -16 -9 -29 0 -13 -4 -26 -9 -29 -5 -3 -11 -16 -14 -28 -3 -13
-18 -68 -32 -123 -43 -163 -54 -212 -85 -370 -22 -116 -49 -342 -61 -508 -15
-224 -2 -578 31 -797 20 -142 31 -205 40 -240 5 -19 17 -78 26 -130 9 -52 20
-99 24 -105 4 -5 10 -21 13 -35 3 -14 13 -54 22 -90 9 -36 19 -75 22 -88 3
-12 9 -25 14 -28 5 -3 9 -16 9 -29 0 -13 4 -26 9 -29 5 -3 12 -22 16 -42 3
-20 10 -44 15 -53 10 -21 25 -58 40 -101 25 -69 80 -194 116 -261 47 -91 55
-87 -198 -92 -228 -4 -356 -19 -421 -52 -17 -8 -37 -15 -46 -15 -9 0 -32 -9
-51 -20 -19 -11 -54 -29 -78 -40 -58 -28 -148 -86 -192 -124 -105 -91 -250
-256 -250 -285 0 -5 -4 -11 -8 -13 -24 -9 -95 -170 -142 -323 -14 -47 -32
-193 -32 -270 -1 -89 22 -294 33 -301 5 -3 9 -15 9 -27 0 -38 68 -198 129
-305 29 -51 109 -151 166 -207 51 -51 173 -150 213 -173 80 -45 155 -81 202
-97 30 -10 64 -21 75 -25 50 -19 106 -31 180 -39 106 -12 8495 -12 8600 0 107
12 183 31 262 65 17 8 34 14 37 14 25 0 204 100 242 135 6 6 24 19 39 30 32
22 185 171 185 180 0 3 19 31 43 63 23 32 62 98 86 147 24 50 47 97 52 106 16
33 58 217 65 284 22 205 -9 409 -91 600 -7 17 -19 45 -26 63 -8 17 -17 32 -21
32 -5 0 -8 7 -8 15 0 8 -4 15 -10 15 -5 0 -10 6 -10 14 0 31 -160 217 -260
301 -89 76 -247 161 -365 198 -164 51 -169 51 -495 57 -362 6 -332 -6 -278
110 35 75 66 146 78 175 4 11 16 40 25 65 10 25 23 59 30 75 18 43 93 273 104
320 5 22 15 58 21 80 11 38 59 266 79 370 23 120 41 284 52 479 15 259 2 518
-42 826 -16 111 -51 297 -68 360 -5 19 -21 78 -34 130 -26 99 -33 121 -47 155
-5 11 -18 51 -29 88 -12 38 -27 83 -35 100 -8 18 -33 79 -56 137 -23 58 -57
138 -76 177 -19 40 -34 80 -34 88 0 13 23 15 153 15 261 0 436 33 615 116 29
13 55 24 57 24 5 0 116 71 125 80 3 3 28 23 55 45 55 43 205 195 205 206 0 5
11 20 25 35 14 15 25 33 25 40 0 7 3 14 8 16 9 4 87 155 97 188 4 14 13 39 20
55 25 60 52 219 57 330 4 95 -27 324 -51 380 -5 11 -15 36 -21 55 -37 103
-107 229 -180 325 -33 43 -192 196 -231 222 -104 69 -246 143 -274 143 -8 0
-16 4 -19 9 -3 5 -18 11 -33 14 -16 3 -62 13 -103 22 -41 9 -104 18 -140 21
-100 8 -8467 10 -8535 2z m320 -317 c33 -7 64 -16 70 -22 5 -5 15 -9 22 -9 31
0 191 -87 256 -138 25 -21 107 -103 127 -128 91 -113 131 -194 171 -342 16
-59 20 -106 20 -202 0 -131 0 -133 -26 -220 -9 -30 -19 -66 -22 -80 -8 -31
-44 -96 -96 -175 -104 -156 -288 -295 -447 -339 -36 -10 -76 -22 -90 -26 -79
-26 -297 -16 -421 18 -73 21 -201 82 -240 116 -11 9 -23 16 -27 16 -13 0 -177
174 -207 220 -55 83 -82 146 -126 298 -7 23 -12 102 -13 180 0 123 2 146 28
227 89 282 277 478 561 584 107 40 315 49 460 22z m4435 1 c126 -13 226 -28
280 -42 19 -5 76 -16 125 -25 87 -16 142 -29 195 -45 14 -4 52 -16 85 -25 146
-42 400 -131 455 -160 74 -39 133 -65 146 -65 8 0 14 -4 14 -10 0 -5 4 -10 10
-10 12 0 123 -52 130 -60 3 -4 39 -25 81 -48 66 -35 115 -64 201 -117 54 -34
237 -170 367 -273 103 -82 279 -247 391 -368 69 -74 220 -254 220 -262 0 -4
12 -21 28 -37 36 -40 202 -288 202 -303 0 -7 3 -12 8 -12 4 0 16 -17 27 -37
10 -21 27 -50 37 -64 19 -28 145 -278 173 -344 10 -22 26 -58 36 -81 11 -22
19 -44 19 -48 0 -4 7 -24 16 -44 29 -67 32 -76 73 -207 57 -186 78 -259 95
-350 9 -44 20 -100 26 -125 10 -50 24 -137 40 -250 20 -132 29 -461 20 -667
-14 -306 -55 -567 -132 -833 -16 -58 -32 -114 -35 -125 -2 -11 -8 -29 -13 -40
-5 -11 -16 -42 -25 -70 -10 -27 -21 -60 -26 -72 -5 -13 -13 -33 -18 -45 -5
-13 -17 -43 -26 -68 -35 -88 -61 -146 -130 -284 l-70 -141 -1134 0 c-748 0
-1135 3 -1137 10 -3 9 81 72 111 84 27 11 172 138 276 241 98 98 141 146 222
250 51 66 146 222 189 310 56 118 90 198 108 255 7 22 16 44 21 50 5 5 9 21 9
35 0 14 4 30 9 36 6 5 14 34 20 64 5 30 16 89 24 130 33 167 38 223 38 387 1
159 -4 209 -33 398 -19 122 -97 396 -119 419 -5 6 -9 17 -9 27 0 9 -11 37 -25
63 -14 26 -25 53 -25 61 0 7 -3 15 -7 17 -5 2 -20 26 -34 53 -103 201 -216
354 -383 520 -146 144 -192 182 -367 299 -86 58 -334 186 -359 186 -5 0 -26 7
-47 16 -89 39 -153 60 -243 81 -277 63 -239 62 -2187 63 -1508 0 -1753 2
-1753 14 0 8 19 34 43 58 51 51 169 227 202 302 90 204 123 406 100 606 -11
96 -42 235 -63 285 -74 175 -135 271 -244 389 -26 28 -48 54 -48 59 0 13 3689
3 3820 -11z m3835 2 c95 -22 188 -58 260 -101 64 -39 205 -150 205 -161 0 -4
16 -24 35 -44 19 -20 35 -40 35 -44 0 -4 10 -21 23 -38 22 -29 67 -118 67
-132 0 -3 6 -20 14 -37 33 -75 41 -134 41 -292 0 -167 -7 -206 -58 -330 -55
-132 -174 -276 -302 -364 -78 -55 -189 -111 -217 -111 -9 0 -19 -4 -22 -9 -14
-23 -207 -39 -475 -40 -196 -1 -227 1 -243 16 -10 9 -18 22 -18 30 0 7 -4 13
-8 13 -5 0 -19 19 -32 43 -25 44 -148 219 -209 297 -148 188 -438 491 -585
610 -37 30 -75 62 -83 70 -9 8 -60 47 -112 87 -53 40 -101 76 -107 81 -10 9
-79 56 -113 77 -9 5 -30 20 -48 32 -17 13 -36 23 -42 23 -6 0 -11 5 -11 10 0
6 -5 10 -10 10 -6 0 -45 22 -88 48 -42 27 -110 65 -149 85 -40 20 -103 52
-140 71 -92 47 -183 86 -199 86 -8 0 -14 7 -14 15 0 13 148 15 1268 15 1126 0
1275 -2 1337 -16z m-5385 -2020 c0 -10 -42 -44 -75 -61 -31 -16 -42 -25 -165
-125 -68 -56 -226 -210 -275 -269 -174 -209 -326 -470 -390 -669 -10 -30 -21
-62 -25 -70 -21 -46 -70 -264 -89 -395 -28 -191 -19 -471 20 -675 28 -145 76
-312 119 -415 26 -63 62 -143 72 -160 6 -10 21 -37 33 -60 55 -101 96 -167
155 -250 70 -99 305 -342 407 -420 36 -27 71 -56 78 -62 8 -7 16 -13 19 -13 3
0 33 -20 68 -44 90 -62 211 -128 333 -181 22 -10 56 -24 75 -33 19 -8 57 -21
85 -29 27 -8 66 -19 85 -24 57 -17 111 -30 185 -45 39 -8 95 -20 125 -26 40
-8 555 -12 1888 -15 1748 -3 1832 -4 1832 -21 0 -10 -21 -38 -46 -62 -93 -91
-203 -279 -248 -425 -59 -192 -71 -305 -51 -475 13 -116 48 -267 66 -285 5 -5
9 -17 9 -26 0 -15 34 -85 84 -174 30 -55 129 -183 160 -210 20 -16 36 -34 36
-38 0 -13 -3828 -3 -3875 10 -22 7 -62 13 -90 14 -27 1 -59 6 -70 10 -11 4
-54 13 -95 19 -85 14 -261 53 -334 75 -26 8 -55 15 -62 15 -8 0 -22 4 -32 9
-9 5 -55 21 -102 36 -47 15 -89 31 -94 36 -6 5 -18 9 -28 9 -18 0 -42 10 -165
67 -40 18 -77 33 -82 33 -9 0 -203 98 -271 137 -19 11 -57 32 -85 48 -27 15
-59 33 -70 39 -11 7 -60 39 -109 71 -48 33 -104 71 -124 84 -20 13 -43 30 -50
38 -8 7 -23 18 -34 24 -11 6 -29 18 -40 27 -223 179 -488 439 -654 642 -16 19
-37 44 -46 54 -10 11 -20 28 -24 38 -3 10 -10 18 -15 18 -5 0 -9 6 -9 14 0 8
-3 16 -8 18 -12 5 -106 137 -173 243 -68 109 -251 464 -289 560 -12 33 -29 74
-36 90 -7 17 -26 70 -43 118 -16 49 -32 91 -35 94 -3 4 -6 16 -6 28 0 11 -4
25 -9 31 -5 5 -14 29 -19 54 -6 25 -16 63 -22 85 -18 62 -27 105 -40 175 -7
36 -16 74 -21 85 -4 11 -10 38 -12 60 -3 22 -14 110 -25 195 -11 85 -24 234
-27 330 -4 96 -7 177 -8 180 -5 25 19 337 34 460 20 155 22 172 54 330 9 47
19 99 22 115 3 17 9 35 13 40 4 6 15 42 24 80 9 39 21 79 26 90 5 11 20 58 35
105 27 87 31 98 59 162 9 20 16 39 16 42 0 18 120 273 181 384 l23 42 1138 0
c626 0 1138 -3 1138 -6z m1440 -14 c109 -22 275 -62 295 -70 11 -5 49 -20 85
-34 114 -43 232 -103 319 -161 47 -30 86 -55 88 -55 1 0 11 -7 20 -15 10 -8
47 -37 83 -66 70 -55 209 -187 237 -227 10 -13 31 -38 46 -55 86 -98 229 -347
283 -492 14 -38 29 -79 33 -90 19 -47 38 -123 71 -285 33 -166 34 -466 1 -615
-5 -22 -15 -67 -21 -100 -14 -71 -91 -309 -102 -313 -5 -2 -8 -9 -8 -16 0 -7
-16 -44 -36 -82 -21 -38 -44 -82 -52 -99 -20 -40 -136 -209 -181 -263 -48 -57
-185 -196 -252 -253 -63 -54 -214 -159 -229 -159 -5 0 -10 -3 -10 -7 0 -5 -19
-17 -43 -28 -23 -11 -44 -22 -47 -25 -8 -9 -119 -60 -130 -60 -6 0 -18 -4 -28
-9 -29 -16 -85 -38 -127 -51 -22 -7 -47 -16 -55 -20 -14 -7 -110 -29 -220 -50
-190 -37 -468 -35 -655 5 -160 34 -259 62 -335 97 -14 6 -34 14 -45 18 -46 18
-101 42 -119 52 -93 51 -120 67 -180 107 -102 68 -108 72 -167 120 -99 82
-199 187 -324 343 -58 71 -205 333 -205 364 0 8 -3 14 -8 14 -4 0 -16 28 -26
63 -11 34 -23 67 -26 72 -14 21 -46 145 -60 230 -4 28 -10 57 -13 65 -24 67
-30 405 -9 535 26 171 42 236 87 370 31 92 132 309 167 357 13 18 31 48 41 67
54 99 265 331 397 435 132 103 407 257 505 282 14 3 28 10 31 15 3 5 14 9 25
9 10 0 27 4 37 10 42 24 216 63 362 80 95 11 428 5 500 -10z m-3881 -4062 c17
-18 31 -37 31 -42 0 -5 11 -24 25 -42 14 -18 25 -37 25 -43 0 -6 4 -11 8 -11
4 0 16 -15 27 -32 16 -29 39 -61 75 -105 6 -7 10 -16 10 -22 0 -5 4 -11 8 -13
4 -1 21 -21 37 -43 33 -44 36 -47 162 -195 196 -228 461 -474 687 -635 16 -11
40 -29 55 -41 14 -11 41 -29 59 -39 17 -11 32 -23 32 -27 0 -4 5 -8 11 -8 6 0
32 -15 58 -34 40 -29 76 -51 166 -100 11 -6 22 -13 25 -16 7 -7 96 -53 235
-122 121 -60 133 -66 193 -88 17 -7 32 -16 32 -21 0 -6 -533 -8 -1307 -6
-1126 2 -1314 5 -1350 17 -23 9 -45 19 -49 23 -4 4 -17 7 -28 7 -12 0 -48 16
-81 35 -33 19 -75 42 -94 51 -53 27 -204 182 -252 259 -47 74 -67 117 -108
235 -7 19 -15 105 -18 192 -5 129 -3 169 12 232 10 42 22 79 27 82 4 3 8 13 8
22 0 29 97 202 112 202 5 0 8 6 8 13 0 6 33 44 73 83 71 71 175 144 252 177
22 10 48 22 57 27 10 6 27 10 37 10 11 0 22 4 25 9 3 5 43 14 88 20 46 6 94
13 108 15 14 2 129 4 257 5 l232 1 30 -32z m7975 10 c71 -11 219 -66 268 -100
14 -10 29 -18 33 -18 12 0 136 -104 171 -143 17 -19 44 -52 60 -73 16 -22 31
-41 34 -44 3 -3 10 -14 16 -25 6 -11 22 -40 36 -65 14 -25 27 -56 31 -70 3
-14 15 -61 27 -105 31 -114 31 -300 0 -405 -12 -41 -24 -86 -27 -100 -3 -14
-9 -27 -13 -30 -3 -3 -16 -26 -27 -51 -26 -55 -127 -192 -174 -234 -52 -47
-145 -115 -157 -115 -5 0 -12 -3 -14 -7 -5 -11 -87 -53 -133 -68 -111 -35
-145 -40 -290 -40 -145 0 -180 5 -290 40 -100 33 -249 130 -333 218 -57 61
-162 217 -162 241 0 9 -3 16 -8 16 -4 0 -15 30 -25 68 -10 37 -23 83 -29 102
-15 46 -16 297 -1 335 6 17 19 59 29 95 10 36 33 91 51 123 18 33 33 63 33 68
0 5 5 9 10 9 6 0 10 6 10 13 0 19 137 164 194 206 201 148 420 199 680 159z"/>
</g>
</svg>
