<?xml version="1.0" standalone="no"?>
<!DOCTYPE svg PUBLIC "-//W3C//DTD SVG 20010904//EN"
 "http://www.w3.org/TR/2001/REC-SVG-20010904/DTD/svg10.dtd">
<svg version="1.0" xmlns="http://www.w3.org/2000/svg"
 width="1200.000000pt" height="1200.000000pt" viewBox="0 0 1200.000000 1200.000000"
 preserveAspectRatio="xMidYMid meet">
<metadata>
Created by potrace 1.14, written by Peter Selinger 2001-2017
</metadata>
<g transform="translate(0.000000,1200.000000) scale(0.100000,-0.100000)"
fill="#000000" stroke="none">
<path d="M3382 9310 c-337 -89 -557 -439 -488 -779 51 -249 219 -439 461 -518
72 -24 99 -27 268 -31 103 -2 187 -6 187 -8 0 -2 -18 -44 -40 -94 -143 -324
-204 -618 -204 -975 -1 -399 59 -663 241 -1072 4 -10 -22 -13 -110 -13 -146 0
-240 -19 -347 -71 -70 -34 -101 -58 -175 -133 -99 -100 -149 -184 -181 -306
-35 -136 -14 -341 47 -463 67 -132 186 -250 314 -312 145 -70 -66 -65 2717
-63 l2513 3 73 27 c108 39 177 84 263 168 62 62 85 94 122 170 72 148 91 274
63 422 -42 217 -168 387 -359 482 -122 61 -199 76 -398 76 -87 0 -159 3 -159
6 0 4 18 47 40 96 86 190 155 436 191 683 20 131 17 470 -5 620 -32 227 -94
444 -185 655 -23 51 -41 94 -41 95 0 2 64 5 143 7 122 4 154 9 227 34 171 57
316 185 394 347 52 108 68 179 68 296 -1 101 -12 162 -49 251 -81 199 -251
347 -459 400 -76 20 -122 20 -2568 19 -2424 0 -2493 -1 -2564 -19z m292 -175
c229 -60 376 -247 376 -480 0 -143 -47 -252 -153 -352 -101 -95 -204 -136
-342 -135 -141 1 -254 51 -352 155 -102 108 -137 204 -131 361 3 92 7 108 41
179 101 214 340 329 561 272z m2531 5 c580 -54 1121 -333 1503 -775 297 -345
483 -775 533 -1233 15 -141 7 -460 -16 -589 -35 -208 -97 -404 -188 -595 l-60
-128 -654 0 c-359 0 -653 2 -653 5 0 2 26 22 58 44 134 91 294 267 376 413 70
127 131 308 151 452 12 85 7 268 -10 371 -38 237 -152 472 -312 645 -174 188
-374 307 -633 378 l-95 27 -1087 3 c-599 1 -1088 6 -1088 11 0 4 12 18 26 32
48 43 120 164 147 247 37 111 44 224 23 332 -21 106 -80 230 -146 310 l-51 60
1033 0 c620 0 1077 -4 1143 -10z m2260 -5 c310 -81 466 -430 317 -709 -42 -79
-135 -167 -222 -209 -88 -44 -166 -56 -347 -57 l-122 0 -49 73 c-203 299 -486
572 -772 744 -76 45 -281 152 -320 166 -8 3 316 6 720 6 630 1 744 -1 795 -14z
m-3153 -1173 c-258 -192 -395 -362 -491 -607 -126 -321 -110 -710 43 -1013
153 -305 449 -556 759 -646 198 -58 160 -56 1298 -56 577 0 1049 -3 1049 -6 0
-3 -20 -29 -45 -56 -59 -65 -107 -154 -137 -248 -33 -106 -32 -274 1 -375 31
-97 83 -191 137 -253 l46 -52 -1045 0 c-648 0 -1084 4 -1148 10 -437 44 -835
205 -1185 481 -113 89 -307 287 -392 402 -237 317 -387 683 -437 1061 -18 141
-21 424 -4 557 30 253 101 491 216 727 l45 92 656 0 c622 -1 656 -2 634 -18z
m948 -17 c307 -75 569 -288 710 -579 170 -350 140 -751 -82 -1080 -60 -88
-211 -234 -301 -290 -309 -192 -663 -227 -990 -97 -403 160 -677 565 -677
1001 0 415 248 802 623 975 93 43 223 82 312 94 109 15 286 4 405 -24z m-2282
-2405 c250 -368 629 -689 1012 -857 l75 -33 -760 3 c-858 2 -794 -3 -927 84
-314 206 -283 676 56 843 97 48 157 58 345 56 l134 -1 65 -95z m4617 68 c78
-25 141 -66 202 -131 63 -67 98 -126 117 -203 94 -368 -225 -695 -593 -609
-88 21 -155 59 -226 130 -101 101 -145 205 -145 351 0 133 40 234 129 327 141
148 327 197 516 135z"/>
<path d="M6259 3491 c-17 -13 -23 -29 -23 -56 0 -45 31 -75 76 -75 36 0 78 40
78 75 0 61 -82 96 -131 56z"/>
<path d="M4240 3119 l0 -291 128 4 c99 3 137 9 172 24 100 45 145 142 138 293
-9 192 -99 261 -340 261 l-98 0 0 -291z m249 165 c17 -14 35 -42 41 -62 13
-48 13 -156 0 -204 -15 -51 -61 -88 -111 -88 l-39 0 0 190 0 190 39 0 c28 0
49 -8 70 -26z"/>
<path d="M6865 3381 c-40 -6 -40 -6 -43 -53 l-3 -48 -45 0 -44 0 0 -50 0 -50
44 0 44 0 4 -127 c4 -150 16 -181 86 -215 36 -17 55 -20 108 -15 35 4 77 13
94 22 l30 16 -22 38 c-20 35 -24 38 -49 29 -15 -5 -42 -8 -60 -6 -48 4 -59 33
-59 156 l0 102 65 0 c70 0 70 -1 79 63 l5 37 -75 0 -74 0 0 55 c0 61 3 59 -85
46z"/>
<path d="M4997 3275 c-77 -27 -126 -99 -134 -197 -19 -199 158 -315 352 -229
51 23 54 34 22 75 -23 28 -24 28 -55 12 -59 -31 -149 -16 -170 28 -28 59 -34
56 123 56 l145 0 0 58 c-1 156 -135 250 -283 197z m133 -95 c11 -11 20 -26 20
-34 0 -8 3 -21 6 -30 5 -14 -6 -16 -80 -16 l-86 0 6 28 c14 63 93 93 134 52z"/>
<path d="M5701 3279 c-13 -5 -36 -18 -51 -29 l-29 -20 -3 22 c-3 20 -9 23 -60
26 l-58 3 0 -226 0 -225 65 0 65 0 0 159 0 160 26 20 c32 25 79 28 88 5 3 -9
6 -90 6 -180 l0 -164 65 0 65 0 0 193 c0 158 -3 197 -16 215 -32 46 -105 64
-163 41z"/>
<path d="M7380 3231 l0 -50 99 -3 99 -3 -109 -128 c-103 -121 -109 -131 -109
-173 l0 -44 185 0 c174 0 185 1 185 19 0 10 3 33 6 50 l7 31 -112 0 -112 0
107 127 c101 120 108 129 108 172 l1 46 -177 3 -178 2 0 -49z"/>
<path d="M6140 3225 l0 -45 60 0 60 0 0 -130 0 -130 -65 0 -65 0 0 -45 0 -45
185 0 185 0 0 45 0 45 -55 0 -55 0 0 175 0 175 -125 0 -125 0 0 -45z"/>
</g>
</svg>
